<svg viewBox="0 0 400 141" xmlns="http://www.w3.org/2000/svg" fill-rule="evenodd" clip-rule="evenodd" stroke-linejoin="round" stroke-miterlimit="2"><g transform="translate(-222.278 -227.612)"><path fill="none" d="M222.278 227.612h399.465v140.053H222.278z"/><clipPath id="a"><path d="M222.278 227.612h399.465v140.053H222.278z"/></clipPath><g clip-path="url(#a)"><path d="M323.865 247.679c-1.264 0-2.241.748-2.662 2.015l-9.808 23.44-9.635-23.292c-.501-1.433-1.46-2.163-2.847-2.163-1.563 0-2.883 1.291-2.883 2.824 0 .396.116.76.23 1.109.038.101.067.2.092.303a.274.274 0 00.032.064l11.745 26.537c.857 1.902 2.179 2.3 3.14 2.3h.242c1.373 0 2.377-.75 3.076-2.306l11.819-26.666a3.71 3.71 0 00.28-1.341 2.826 2.826 0 00-2.821-2.824M333.983 235.685c-1.885 0-3.241 1.268-3.241 3.005v.792c0 1.709 1.39 2.996 3.24 2.996 1.887 0 3.307-1.287 3.307-2.996v-.792c0-1.737-1.386-3.005-3.306-3.005M333.983 247.679c-1.554 0-2.822 1.291-2.822 2.88v27.197a2.852 2.852 0 002.879 2.881c1.612 0 2.825-1.241 2.825-2.881v-27.197a2.853 2.853 0 00-2.882-2.88M355.758 261.45l-.124-.038c-3.89-1.183-7.566-2.301-7.566-4.853v-.125c0-2.404 2.228-4.021 5.54-4.021 2.466 0 5.206.814 7.94 2.37.22.11.679.295 1.268.295 1.418 0 2.573-1.13 2.573-2.52 0-.966-.522-1.857-1.423-2.394-3.211-1.733-6.94-2.727-10.236-2.727-6.58 0-11.185 3.9-11.185 9.486v.118c0 6.294 6.206 8.056 10.737 9.341 4.21 1.181 7.435 2.297 7.435 5.013v.122c0 2.66-2.392 4.448-5.96 4.448-3.235 0-6.472-1.091-9.61-3.22-.387-.303-.91-.476-1.475-.476-1.42 0-2.576 1.129-2.576 2.518 0 1.003.548 1.75 1.06 2.121 3.539 2.524 8.16 4.034 12.352 4.034 6.984 0 11.667-3.988 11.667-9.911v-.12c0-6.336-6.275-8.212-10.417-9.461M374.014 247.679c-1.554 0-2.817 1.291-2.817 2.88v27.197a2.848 2.848 0 002.878 2.881c1.609 0 2.826-1.241 2.826-2.881v-27.197c0-1.614-1.27-2.88-2.887-2.88M374.014 235.685c-1.88 0-3.241 1.268-3.241 3.005v.792c0 1.709 1.394 2.996 3.24 2.996 1.888 0 3.307-1.287 3.307-2.996v-.792c0-1.737-1.39-3.005-3.306-3.005M398.608 275.179c-.185 0-.38.048-.642.116-.463.118-1.162.307-2.205.307-3.244 0-4.748-1.488-4.748-4.691v-17.77h7.595c1.45 0 2.636-1.162 2.636-2.581 0-1.396-1.208-2.573-2.636-2.573h-7.595v-6.873c0-1.565-1.316-2.881-2.876-2.881-1.588 0-2.828 1.261-2.828 2.881v6.873h-2.028c-1.394 0-2.575 1.177-2.575 2.573 0 1.377 1.204 2.581 2.575 2.581h2.028v18.376c0 6.033 3.327 9.362 9.36 9.362 1.795 0 3.322-.28 4.79-.884 1.025-.394 1.666-1.276 1.666-2.3a2.52 2.52 0 00-2.517-2.516" fill="#fff" fill-rule="nonzero"/><path d="M282.8 276.833c1.169.52 1.049 1.737 2.058 2.341 1.122 1.914 2.4 4.092 1.385 6.482.72 3.312-2.265 4.554-3.594 7.104-.82.323-1.324 1.459-2.451.975-.63.516-1.575.596-2.287.457-.305.535-.974.038-1.35.358-4.893.415-7.874-3.788-11.132-6.814-.465-.573-1.143-.611-1.703-1.251-.81-.027-1.377-.996-2.25-.488-.656.368-1.273.827-2.044.857-.173.554-.928.105-.825.777-1.51.301-.885 2.638-2.752 2.051-.712.246-.897-.617-1.451-.718.122-.731-.164-1.123.189-1.735 1.106-.543 2.188-1.432 3.159-2.032.174-.533 1.028-.533 1.507-.883.142-.221.38-.212.54-.398 1.558.205 3.377-.204 4.668.573 1.545.535 3.093 2.104 4.31 3.091 1.118 1.552 2.632 3.538 4.409 3.91.407 1.104 2.039.609 3.056.912.225-.042.509-.337.665-.116.625-.204 1.53 0 1.893-.61.786.054 1.299-.63 2.026-.731.185-.141.21-.554.547-.381.773-.807 2.106-1.596 2.118-2.872.66-.552-.065-1.24.19-1.999.657-2.282-.341-4.259-1.385-6.064-.89-.48-1.843-1.291-2.875-1.712-2.057-.13-4.578-.263-5.536 1.281-.075 1.177-1.711.911-1.151 2.362-.301 1.657 1.234 2.194 2.027 3.285 1.279-.394 1.77.925 3.068.518.716-.339 1.097-1.093 1.513-1.691-.192-.503-.485-.981-.342-1.621.668-.028.305-.865.97-.899.677-.064.372.699.773.964.613.674.54 2.005.293 2.952-.431.164-.234.604-.298.929-.791 1.053-1.898 1.878-3.148 2.025-2.48-.254-4.433-1.111-5.901-3.284-.68-.879-1.474-2.11-.953-3.384.122.048.183-.049.269-.11-.537-.549.52-.88.177-1.337.659-1.678 1.925-3.324 3.756-3.881 1.176.455 2.076-.677 3.344-.423 1.52.388 3.06.739 4.519 1.23" fill="#0994dc" fill-rule="nonzero"/><path d="M252.935 290.033c1.45 1.322 3.737 1.44 5.609.943 1.62-.463 2.455-1.943 3.892-2.809.47 0 .726.516 1.2.535-1.424 1.655-2.44 3.481-4.553 4.136-1.472.258-3.196.693-4.681.143-1.252-.07-1.87-.815-2.944-1.333v-.265c-.93-.887-1.558-1.647-2.14-2.548-.538-.398-.521-.801-1.056-1.072-.212-.893-1.204-1.569-1.882-2.14-.794-.82-2.23-.646-3.49-.673-2.292-.074-3.141 2.8-5.07 3.348-.242.495-.97.459-.937 1.076 2.14.913 2.917-1.624 4.549-2.02 1.983-.328 3.607.788 4.54 2.413.44.746 1.6 1.403 1.345 2.555-.297.229-.657.294-1.078.25-1.218-.87-2.455-1.981-3.474-3.07-.855-.075-1.424.579-2.266.531-1.013.535-1.415 1.669-2.68 1.615-1.16 0-2.125-.489-3.218-.672-.272-.49-.88-.172-1.325-.274-.82-1.13-1.246-2.674-1.876-4.017-.402-.337-.246-.916-.796-1.196-.612-.331-1.383.356-1.474-.672-2.15-.105-3.453 1.531-4.28 3.211-.034 1.112.12 2.394 1.2 2.805.564.733 1.798.36 2.004 1.35.624-.247 1.434-.017 1.879-.683.132-.966-.127-1.764-.803-2.396-1.076-.667-1.665.653-2.668.533-.168.282-.448.305-.68.13-.604-.164.087-.627-.126-1.065.876-1.563 2.839-1.438 4.409-1.213 1.497.442 1.426 2.337 2.405 3.213.366 1.628-1.156 2.38-1.998 3.349-1.531 1.356-3.13-.289-4.816-.144-.884-.172-1.626-.72-2.28-1.459-.982-1.664-1.04-4.197-.402-6.012.338-.035.417-.402.403-.675 1.727-1.71 4.195-3.163 6.964-2.544 2.725.851 2.805 3.973 4.403 5.887.149.148.289.354.535.27.246-.08-.291-.733.27-.539.433-.944.816-2.045 1.737-2.67.025-.537.629-.802.939-1.215.625-.023.855-1.158 1.73-.929.605-1.217 2.167-.611 3.077-1.331 5.083-.72 7.046 4.393 9.903 7.343" fill="#0994dc" fill-rule="nonzero"/><path d="M258.108 232.411c.215 1.558 1.238 2.956.659 4.677-.383.24-.351.739-.54.941-.34.71-.304 1.591-1.056 2.133-.358.964-1.505 1.491-2.02 2.154-1.991 1.607-4.71 2.127-7.35 1.459-1.183-.036-1.464-.274-2.236-.857a17.766 17.766 0 00-1.407-1.499c-.383-.341-.324-1.146-.501-1.918-.341-.912 0-1.605 0-2.413a6.495 6.495 0 01-1.198-2.675c.474-1.526 1.987-2.093 3.15-3.103 2.2-1.914 5.367-4.163 8.62-2.514 1.683.808 2.71 2.131 3.879 3.615" fill="#fab20b" fill-rule="nonzero"/><path d="M267.222 231.112c.786.846 1.55 1.811 2.29 2.79.757.158 1.089-.667 1.74-.794.573-.552 1.247-1.407 2.136-1.47.867.158 1.15.824 1.882 1.333.013.604.56 1.122.922 1.474 1.48-.32 2.923-1.097 4.466-1.229.916 1.202-.025 2.819-.313 4.036-.424 1.486-1.258 2.474-1.87 3.874.027.765-.596 1.259-.943 1.87-.197 1.009-.597 1.822-1.21 2.407.12.746-.751.762-.661 1.457-1.694 1.56-1.863 3.71-3.611 5.237-.686 1.177-1.781 1.96-2.674 2.939-.76 1.241-2.141 1.276-3.068 2.679-.608.069-.937.842-1.488 1.059-.994 1.31.214 2.691 0 4.152.97 1.474-.066 3.125-.131 4.683-.297.712-.76 1.011-1.057 1.739.073 1.757 2.394 2.963 3.285 3.18.358.042.444.126.585.362.009.286-1.108.674-1.634 1.535.198.803 1.564 1.06 1.756 1.573-.46.63-1.748.737-1.973 1.295.466.619 1.986.67 2.512 1.179.087.7-.867.499-1.191.904-2.761.532-5.747.532-8.297-.405-2.076-.277-4.01.457-6.024.672-.867-.143-.916.451-1.7.023-.155.007-.286-.117-.562-.023-.387.508-1.51-1.076-1.472-1.865.428-.596-.353-1.788.666-2.016.587-.905 1.169-2.141.53-3.2-1.695-1.512-1.14-3.957-2.13-5.749.155-1.537-.226-3.183.663-4.685-.103-.261.18-.478.27-.545.886-2.356 3.192-4.298 2.669-7.081-.337-.677.017-.843-.181-1.31-.156-.794-.538-1.108-.078-2.034.668-3.053 4.182-3.51 6.417-5.216 2.549-.558 3.8-3.424 5.086-5.357-.048-.198.039-.669.264-.92 1.368-1.133 1.118-3.384 2.27-4.83-.122-.506.189-.832.404-1.199.074-.943.41-2.103.777-2.928.29-.076.522.09.678.404" fill="#ed1c24" fill-rule="nonzero"/><path d="M230.945 235.568c2.019 2.159 3.023 5.734 5.498 7.351.832 1.346 2.356 2.171 3.887 2.399.823 1.065 2.5.625 3.468 1.602 1.2-.352 1.315 1.063 2.409.941.496.714 1.18 1.238 1.48 2.148.427 2.691-1.782 4.283-1.743 6.814-1.361 2.779.279 5.63.124 8.566.073.756-.06 1.414-.396 2-.032 2.491-1.695 4.167-3.211 5.875-.552 1.731.669 4.15-.931 5.492-.727.012-1.266.539-2.011.539-1.262.438-2.935.277-4.277.128-.457-.626-1.497.149-1.867-.667-.653-.449-1.752-.247-2.422-.272-1.678-.169-3.171.052-5.018-.163-.616.114-1.073.068-1.2.037-.577-.335.16-1.03.57-1.291.69-.377.643-.344.923-.615.177-.743-1.457-.596-1.251-1.356.514-.369 1.826-.75 1.653-1.537-.3-.95-1.695-1.123-1.847-1.893 1.239-1.049 3.205-1.415 4.974-1.479.205-.543.967-.261.937-.787.186-.552.842-1.091.398-1.744-.212-.311.09-.625-.272-.947.163-.581.177-1.066.133-1.6.514-.586-.21-1.196.41-1.729-.13-1.236.733-2.344.799-3.213-.095-.565.263-.356.552-1.12.288-.788.66-.889.785-1.363.122-.487-.086-2.824-1.468-3.54-1.474-.568-2.086-2.105-3.205-2.941-1.126-1.6-1.6-3.931-3.211-5.203-.155-1.392-.785-1.518-1.008-3.015-.461-.643-.786-1.866-.933-2.349.868-.776 2.546.916 3.063-.023-.024-.57-.263-2.071.32-2.274.988.041 2.144.571 2.81.23.78-.632-.1-3.005 1.078-3.001" fill="#00a650" fill-rule="nonzero"/><path d="M382.276 310.696h4.302c1 0 1.876-.878 1.876-1.874v-1.769c0-.994-.876-1.878-1.876-1.878h-4.306M361.54 332.768l12.388-12.388c.342-.343.342-.939 0-1.274l-.56-.562a.93.93 0 00-1.278 0l-14.196 14.204-.617.612-2.238 2.229c-.333.339-.333.938.008 1.275M449.094 332.768l12.392-12.388c.333-.343.333-.939 0-1.274l-.565-.562a.93.93 0 00-1.278 0l-14.2 14.204-.613.612-2.238 2.229c-.333.339-.333.938.008 1.275M524.815 336.62l.608-.615 8.724-8.72a.925.925 0 000-1.271l-.564-.565a.925.925 0 00-1.274 0l-8.72 8.718-.604.614-.823.809c-.333.343-.333.937 0 1.274l.564.568" fill="#fff"/><path d="M359.299 326.702a10.999 10.999 0 01-4.001 3.999c-1.682.985-3.464 1.474-5.384 1.474-1.912 0-3.693-.489-5.376-1.474a10.971 10.971 0 01-4.005-3.999c-.983-1.685-1.467-3.468-1.467-5.38 0-1.92.484-3.699 1.467-5.384a10.956 10.956 0 014.005-3.999 10.42 10.42 0 015.376-1.467c1.92 0 3.706.482 5.384 1.467a10.983 10.983 0 014 3.999c.984 1.685 1.473 3.464 1.473 5.384 0 1.914-.49 3.695-1.472 5.38m4.79-13.524a16.107 16.107 0 00-6.032-6.027c-2.533-1.459-5.256-2.194-8.143-2.194-2.878 0-5.605.735-8.142 2.194a16.106 16.106 0 00-6.027 6.027c-1.451 2.535-2.198 5.261-2.198 8.144s.743 5.608 2.198 8.143a16.098 16.098 0 006.027 6.024c2.537 1.455 5.264 2.192 8.142 2.192 2.887 0 5.6-.737 8.143-2.192a16.15 16.15 0 006.033-6.024c1.452-2.535 2.187-5.26 2.187-8.143 0-2.883-.735-5.609-2.187-8.144M377.92 312.974c-1.418 1.497-2.15 3.333-2.15 5.618v17.199c0 1.004-.888 1.889-1.896 1.889h-1.727c-1 0-1.893-.885-1.893-1.889V318.52c0-3.632 1.234-6.797 3.693-9.372 2.506-2.621 5.619-3.965 9.217-3.965 1.005 0 1.897.883 1.897 1.893v1.722c0 1.009-.892 1.894-1.897 1.894-2.118 0-3.828.749-5.243 2.282" fill="#fff"/><path d="M329.565 301.167c-1.662-2.598-3.828-4.597-6.424-5.919-2.534-1.32-5.187-1.99-7.913-1.99-4.26 0-8.143 1.529-11.544 4.544-3.426 3.03-5.161 7.299-5.161 12.675v25.221c0 1.095.897 1.984 1.994 1.984h1.765a1.978 1.978 0 001.977-1.984v-24.407c0-4.335 1.103-7.383 3.36-9.312 2.344-2.008 4.838-2.981 7.609-2.981 2.98 0 5.516 1.047 7.782 3.22 2.244 2.08 3.335 4.638 3.335 7.816 0 3.362-1.107 5.985-3.364 7.999-2.348 2.047-4.881 3.039-7.753 3.039-2.13 0-4.014-.529-5.753-1.624a1.97 1.97 0 00-2.007-.06 1.969 1.969 0 00-1.036 1.717l-.025 2.049a1.983 1.983 0 001.053 1.78c2.352 1.251 4.997 1.878 7.85 1.878 2.604 0 5.236-.667 7.814-1.982 2.613-1.328 4.767-3.293 6.44-5.851 1.675-2.622 2.513-5.628 2.513-8.945 0-3.32-.843-6.308-2.512-8.867" fill="#fff" fill-rule="nonzero"/><path d="M448.296 333.662c-2.6 2.659-6.361 4.02-10.05 4.02-3.702 0-7.465-1.396-10.07-4.109-2.577-2.692-3.91-5.914-3.91-9.591v-16.904c0-1.011.884-1.895 1.89-1.895h1.734c1.003 0 1.89.884 1.89 1.895v16.904c0 2.317.757 4.22 2.284 5.826 1.566 1.599 3.964 2.366 6.182 2.366 2.279 0 4.683-.792 6.184-2.371 1.575-1.616 2.352-3.517 2.352-5.821v-16.904c0-1.011.889-1.895 1.893-1.895h1.73c1.005 0 1.892.884 1.892 1.895v16.904c0 3.727-1.356 6.981-4.001 9.68" fill="#fff"/><path d="M520.04 309.292c-3.331-2.952-7.136-4.447-11.305-4.447-2.658 0-5.26.654-7.72 1.939-2.562 1.303-4.68 3.259-6.295 5.788-1.643 2.517-2.477 5.442-2.477 8.693 0 3.244.826 6.186 2.477 8.765 1.623 2.487 3.737 4.411 6.296 5.713 2.52 1.288 5.099 1.937 7.645 1.937 2.772 0 5.334-.609 7.62-1.809a1.939 1.939 0 001.045-1.718v-2.032c0-.707-.388-1.362-1-1.703a1.961 1.961 0 00-1.981.059c-1.7 1.069-3.538 1.591-5.61 1.591-2.804 0-5.281-.976-7.563-2.964-2.226-1.984-3.307-4.548-3.307-7.839 0-3.115 1.07-5.617 3.289-7.676 2.189-2.106 4.669-3.133 7.58-3.133 2.715 0 5.158.96 7.457 2.916 2.209 1.894 3.279 4.873 3.279 9.115v13.131a1.94 1.94 0 001.943 1.942h1.729a1.95 1.95 0 001.948-1.942v-13.924c0-5.257-1.706-9.435-5.05-12.402M552.798 330.581a1.925 1.925 0 00-1.93.057c-1.665 1.044-3.455 1.557-5.482 1.557-2.746 0-5.161-.956-7.39-2.897a9.405 9.405 0 01-1.341-1.467 11.2 11.2 0 01-.595-.967c-.73-1.464-1.17-3.163-1.293-5.127 0-.036-.006-.065-.006-.101v-.015c-.022-.318-.03-.646-.03-.975v-21.061c-.004-.996-.89-1.882-1.893-1.882h-1.668c-1.004 0-1.897.886-1.897 1.891v21.789c0 .047.004.099.004.154 0 .035-.004.065-.004.099 0 .151.012.3.012.444.005.104.005.209.009.301.013.267.025.529.049.79l.025.181c.02.236.042.461.07.686.486 3.797 2.065 6.991 4.802 9.419 3.226 2.775 6.869 4.224 10.855 4.224l.049-.002.173.002c2.7 0 5.207-.596 7.443-1.771a1.892 1.892 0 001.017-1.679v-1.983c0-.692-.375-1.328-.98-1.667" fill="#fff" fill-rule="nonzero"/><path d="M485.187 311.929l2.402-2.406 2.479-2.477c.334-.337.334-.939 0-1.273l-.568-.561a.917.917 0 00-1.271 0l-2.482 2.481-.61.612-2.233 2.23c-.337.337-.337.931 0 1.274l.568.562M423.723 332.707l1.628-1.628 1.224-1.22 1.084-1.092c.673-.676.673-1.864 0-2.545l-.988-.986c.03-.38.055-.76.055-1.145v-1.94l-7.806 8.056c-1.48 1.555-3.841 1.994-6.087 2.005-1.84-.069-3.443-.53-4.845-1.364-1.555-.976-2.784-2.289-3.694-3.983-.871-1.728-1.33-3.785-1.33-6.22v-9.949h15.569c.996 0 1.872-.878 1.872-1.874v-1.77c0-.992-.876-1.877-1.872-1.877h-15.57v-5.955c0-.998-.892-1.884-1.897-1.884h-1.67c-1.006 0-1.895.886-1.895 1.897v5.942h-3.491c-1.004 0-1.88.885-1.88 1.883v1.764c0 .996.876 1.874 1.872 1.874h3.499v10.687c0 4.973 1.609 9.095 4.972 12.073 3.076 2.647 6.536 4.092 10.312 4.212v.013c.056 0 .117-.003.176-.003.122 0 .242.003.365.003.128 0 .256-.013.375-.038 3.352-.211 6.69-1.538 9.055-3.949l.967-.987z" fill="#fff"/><path d="M472.548 332.171c-4.57 0-8.471-2.83-10.068-6.825-.555-1.195-.831-2.517-.831-3.996 0-1.597.337-3.076 1.02-4.493 1.703-3.757 5.486-6.374 9.879-6.374 3.715 0 6.995 1.867 8.949 4.719.017.02.038.04.06.058.146.219.293.439.433.674a10.411 10.411 0 011.47 5.382c0 1.917-.483 3.698-1.47 5.378a11.366 11.366 0 01-1.118 1.584c-.083.093-.156.182-.238.269-.104.122-.215.236-.325.356-.03.016-.05.044-.067.063a11.009 11.009 0 01-3.984 2.556l-.337.107c-.06.022-.115.045-.177.06a8.5 8.5 0 01-.434.122c-.027.006-.06.017-.09.027a14.22 14.22 0 01-.447.104c-.042.004-.075.017-.12.02-.138.026-.271.051-.41.079-.137.02-.276.031-.413.045-.04.009-.086.015-.126.022-.211.02-.42.042-.63.048.13.03.26.055.388.085-.133-.03-.268-.055-.413-.085-.164.007-.325.015-.501.015m12.708 6.018a21.983 21.983 0 00-5.467-3.786c.504.242.983.499 1.457.777a16.046 16.046 0 005.527-5.725c1.46-2.538 2.197-5.26 2.197-8.139 0-2.887-.737-5.607-2.197-8.147a16.478 16.478 0 00-1.126-1.705c0 .004 0 .019.004.028a1.899 1.899 0 00-.465-.868c-3.22-3.496-8.142-5.666-12.832-5.666-2.866 0-5.614.734-8.168 2.196a16.153 16.153 0 00-6.033 6.039c-1.45 2.535-2.195 5.281-2.195 8.157 0 8.372 5.358 13.865 15.965 16.346 3.796.828 6.946 2.356 9.328 4.534 2.273 2.109 3.37 4.704 3.37 7.932 0 2.209-.54 4.221-1.665 6.18-1.122 1.956-2.615 3.451-4.57 4.569-1.96 1.127-3.983 1.672-6.18 1.672-2.17 0-4.244-.564-6.177-1.672-1.952-1.118-3.445-2.616-4.57-4.569-1.13-1.959-1.678-3.971-1.678-6.18a12.7 12.7 0 011.466-5.972c.625-1.093 1.337-2.074 2.524-3.14a2.013 2.013 0 00.65-1.734 2.01 2.01 0 00-1.07-1.513l-1.534-.785c-.716-.366-1.6-.295-2.187.253-3.841 3.544-5.54 7.283-5.54 12.891 0 4.973 1.79 9.277 5.319 12.802 3.524 3.527 7.828 5.313 12.798 5.313 4.967 0 9.277-1.786 12.803-5.313 3.524-3.525 5.307-7.829 5.307-12.802 0-4.757-1.697-8.786-5.061-11.973" fill="#fff"/><path d="M416.448 239.762c0-.841.72-1.562 1.562-1.562h.3c.66 0 1.142.361 1.562.901l16.4 24.15 16.4-24.15c.36-.54.902-.901 1.563-.901h.3c.84 0 1.562.721 1.562 1.562v39.349c0 .84-.721 1.561-1.562 1.561-.841 0-1.562-.721-1.562-1.561v-35.203l-15.44 22.466c-.36.541-.78.782-1.32.782-.541 0-.961-.241-1.322-.782l-15.44-22.466v35.262c0 .841-.66 1.502-1.501 1.502a1.488 1.488 0 01-1.502-1.502v-39.408zM486.015 268.959v-3.484c-2.583-.662-6.008-1.382-10.394-1.382-6.487 0-10.091 2.884-10.091 7.148v.12c0 4.446 4.205 7.029 8.89 7.029 6.248 0 11.595-3.845 11.595-9.431m-23.61 2.583v-.12c0-6.368 5.467-9.973 13.397-9.973 4.266 0 7.209.541 10.152 1.322v-1.322c0-6.187-3.784-9.371-10.091-9.371-3.365 0-6.19.841-8.711 2.042-.241.12-.481.181-.661.181-.721 0-1.382-.661-1.382-1.382 0-.721.54-1.201.84-1.321 3.125-1.382 6.189-2.284 10.093-2.284 4.146 0 7.45 1.142 9.672 3.365 2.043 2.042 3.124 4.866 3.124 8.65v17.842c0 .901-.6 1.502-1.441 1.502-.842 0-1.443-.601-1.443-1.502v-3.845c-2.102 2.944-5.886 5.827-11.713 5.827-5.707 0-11.835-3.244-11.835-9.611M497.608 264.993v.121c0 8.05 5.587 13.216 12.015 13.216 6.368 0 12.495-5.347 12.495-13.156v-.12c0-7.871-6.127-13.157-12.495-13.157-6.668 0-12.015 4.867-12.015 13.096m27.273 14.178c0 .901-.6 1.502-1.441 1.502-.841 0-1.502-.601-1.502-1.502v-5.587c-2.644 4.025-6.548 7.569-12.615 7.569-7.39 0-14.9-5.947-14.9-15.919v-.12c0-9.973 7.51-16.04 14.9-16.04 6.127 0 10.092 3.484 12.615 7.329V237.84c0-.901.6-1.501 1.44-1.501.842 0 1.503.6 1.503 1.501v41.331zM556.36 263.672c-.421-6.187-3.965-11.895-10.994-11.895-6.068 0-10.753 5.107-11.294 11.895h22.288zm-10.393 17.481c-8.05 0-15.018-6.427-15.018-15.979v-.12c0-8.891 6.247-15.98 14.537-15.98 8.59 0 14.058 7.089 14.058 15.86 0 .72-.721 1.382-1.442 1.382h-24.03c.54 7.628 6.008 12.074 12.016 12.074 4.384 0 7.449-1.802 9.912-4.205.24-.241.54-.42.96-.42.782 0 1.442.6 1.442 1.382 0 .299-.12.66-.48 1.02-3.004 3.004-6.428 4.986-11.955 4.986M565.552 251.056c0-.841.6-1.502 1.44-1.502.842 0 1.503.601 1.503 1.502v28.114c0 .902-.6 1.502-1.441 1.502-.842 0-1.502-.6-1.502-1.502v-28.114zm-.36-11.774a1.77 1.77 0 011.8-1.803c1.023 0 1.864.781 1.864 1.803v1.021c0 1.021-.841 1.802-1.863 1.802a1.77 1.77 0 01-1.801-1.802v-1.021zM577.086 251.056c0-.841.6-1.502 1.44-1.502.842 0 1.503.601 1.503 1.502v7.449c2.644-5.947 7.99-9.191 12.316-9.191.9 0 1.56.721 1.56 1.622 0 .841-.6 1.561-1.56 1.622-6.488.601-12.316 5.467-12.316 15.318v11.294c0 .841-.6 1.502-1.441 1.502-.842 0-1.502-.6-1.502-1.502v-28.114zM619.197 268.959v-3.484c-2.583-.662-6.008-1.382-10.394-1.382-6.487 0-10.091 2.884-10.091 7.148v.12c0 4.446 4.205 7.029 8.89 7.029 6.248 0 11.595-3.845 11.595-9.431m-23.61 2.583v-.12c0-6.368 5.467-9.973 13.397-9.973 4.266 0 7.209.541 10.152 1.322v-1.322c0-6.187-3.784-9.371-10.091-9.371-3.365 0-6.19.841-8.711 2.042-.241.12-.481.181-.661.181-.721 0-1.382-.661-1.382-1.382 0-.721.54-1.201.84-1.321 3.125-1.382 6.189-2.284 10.093-2.284 4.146 0 7.45 1.142 9.672 3.365 2.043 2.042 3.124 4.866 3.124 8.65v17.842c0 .901-.6 1.502-1.441 1.502-.842 0-1.443-.601-1.443-1.502v-3.845c-2.102 2.944-5.886 5.827-11.713 5.827-5.707 0-11.835-3.244-11.835-9.611" fill="#fff" fill-rule="nonzero"/></g></g></svg>