<svg id="Layer_1" data-name="Layer 1" xmlns="http://www.w3.org/2000/svg" viewBox="0 0 399.4644 140.0532"><defs><style>.cls-1,.cls-6{fill:#fff;}.cls-2{fill:#0994dc;}.cls-3{fill:#fab20b;}.cls-4{fill:#ed1c24;}.cls-5{fill:#00a650;}.cls-6{fill-rule:evenodd;}</style></defs><path class="cls-1" d="M106.9479,22.04a2.7294,2.7294,0,0,0-2.6616,2.0151l-9.8082,23.44L84.8426,24.2025A2.8534,2.8534,0,0,0,81.9958,22.04a2.89,2.89,0,0,0-2.8827,2.8237,3.51,3.51,0,0,0,.2317,1.11,3.1321,3.1321,0,0,1,.09.3032.2527.2527,0,0,0,.0316.0632L91.2123,52.8774a3.3594,3.3594,0,0,0,3.1394,2.2994h.2423A3.2823,3.2823,0,0,0,97.67,52.8711l11.819-26.666a3.7264,3.7264,0,0,0,.28-1.3414,2.8262,2.8262,0,0,0-2.8215-2.8237" transform="translate(-5.6389 -2.5843)"/><path class="cls-1" d="M117.0651,10.0456a3.0248,3.0248,0,0,0-3.2406,3.0047v.7918a3.0539,3.0539,0,0,0,3.2406,2.9964,3.0906,3.0906,0,0,0,3.3057-2.9964V13.05a3.0612,3.0612,0,0,0-3.3057-3.0047" transform="translate(-5.6389 -2.5843)"/><path class="cls-1" d="M117.0651,22.04a2.8551,2.8551,0,0,0-2.8217,2.8806V52.1173a2.851,2.851,0,0,0,2.8785,2.88,2.7908,2.7908,0,0,0,2.8257-2.88V24.9206a2.8531,2.8531,0,0,0-2.8825-2.8806" transform="translate(-5.6389 -2.5843)"/><path class="cls-1" d="M138.8414,35.8112l-.1243-.0378c-3.8891-1.1834-7.5657-2.3015-7.5657-4.8536v-.1242c0-2.4047,2.2278-4.0218,5.54-4.0218a16.3913,16.3913,0,0,1,7.9405,2.3709A2.8887,2.8887,0,0,0,145.9,29.44a2.5513,2.5513,0,0,0,2.5731-2.5206,2.7863,2.7863,0,0,0-1.4235-2.3941,22.3532,22.3532,0,0,0-10.2355-2.7268c-6.58,0-11.1853,3.9-11.1853,9.486v.1179c0,6.2938,6.2054,8.0563,10.7368,9.3407,4.2113,1.1813,7.435,2.2973,7.435,5.0136v.1221c0,2.6594-2.392,4.4471-5.959,4.4471a17.0577,17.0577,0,0,1-9.61-3.2195,2.3953,2.3953,0,0,0-1.4761-.4759,2.55,2.55,0,0,0-2.5752,2.5184,2.6392,2.6392,0,0,0,1.0612,2.12,22.1044,22.1044,0,0,0,12.35,4.0344c6.9845,0,11.6675-3.9881,11.6675-9.9113v-.12c0-6.336-6.2749-8.2121-10.4166-9.4608" transform="translate(-5.6389 -2.5843)"/><path class="cls-1" d="M157.0971,22.04a2.8515,2.8515,0,0,0-2.8174,2.8806V52.1173a2.8484,2.8484,0,0,0,2.8785,2.88,2.7933,2.7933,0,0,0,2.8257-2.88V24.9206a2.8542,2.8542,0,0,0-2.8868-2.8806" transform="translate(-5.6389 -2.5843)"/><path class="cls-1" d="M157.0971,10.0456a3.0272,3.0272,0,0,0-3.2406,3.0047v.7918a3.0564,3.0564,0,0,0,3.2406,2.9964,3.0906,3.0906,0,0,0,3.3058-2.9964V13.05a3.0637,3.0637,0,0,0-3.3058-3.0047" transform="translate(-5.6389 -2.5843)"/><path class="cls-1" d="M181.6905,49.54a2.686,2.686,0,0,0-.6423.1158,8.1382,8.1382,0,0,1-2.2046.3074c-3.2447,0-4.7483-1.4887-4.7483-4.6914v-17.77h7.5952a2.578,2.578,0,1,0,0-5.1547h-7.5952V15.4749a2.9141,2.9141,0,0,0-2.8762-2.8806,2.8206,2.8206,0,0,0-2.828,2.8806v6.8728h-2.0277a2.6091,2.6091,0,0,0-2.5752,2.5731,2.6453,2.6453,0,0,0,2.5752,2.5816h2.0277V45.8785c0,6.0326,3.327,9.3617,9.36,9.3617a12.2066,12.2066,0,0,0,4.79-.8844,2.4633,2.4633,0,0,0,1.6655-2.2994,2.52,2.52,0,0,0-2.5162-2.5162" transform="translate(-5.6389 -2.5843)"/><path class="cls-2" d="M65.8836,51.1933c1.1686.52,1.0486,1.7372,2.0572,2.3416,1.1222,1.914,2.4,4.0912,1.3854,6.4811.72,3.3122-2.2656,4.5546-3.5943,7.1046-.8191.3221-1.3245,1.4592-2.4509.9748a2.8767,2.8767,0,0,1-2.2868.457c-.3054.5348-.9749.0379-1.35.3579-4.8936.4149-7.8751-3.788-11.1326-6.8139-.4654-.5727-1.1434-.6106-1.7035-1.2507-.8087-.0274-1.3771-.996-2.2488-.4885a4.661,4.661,0,0,1-2.0446.8569c-.1728.5538-.9286.1054-.8255.7771-1.51.3011-.8844,2.6383-2.7521,2.0509-.7116.2463-.897-.617-1.4508-.7181.1221-.7307-.1642-1.1223.1895-1.735,1.1055-.5433,2.1878-1.4319,3.1585-2.032.1748-.5327,1.0276-.5327,1.5076-.8823.1411-.221.3792-.2126.5392-.3979,1.5581.2042,3.3774-.2043,4.6682.5727,1.5455.5348,3.0932,2.1035,4.31,3.0911,1.1182,1.5519,2.6321,3.5375,4.4093,3.91.4064,1.1034,2.0383.6085,3.0553.9118.2253-.0421.51-.337.6654-.1158.6254-.2043,1.5308,0,1.893-.6107.7854.0548,1.2992-.63,2.0256-.7306.1853-.1411.2106-.5538.5475-.3811.7728-.8066,2.1056-1.5962,2.1182-2.8722.6592-.5517-.0651-1.24.19-1.9983.657-2.2825-.3411-4.26-1.3856-6.0643a30.1238,30.1238,0,0,0-2.8742-1.7119c-2.0572-.1305-4.5777-.2632-5.5357,1.28-.0758,1.177-1.712.9118-1.1518,2.3626-.3011,1.6571,1.2339,2.194,2.0277,3.2848,1.2781-.3938,1.7708.9244,3.068.518a4.3956,4.3956,0,0,0,1.5119-1.6909,2.6363,2.6363,0,0,1-.3412-1.6213c.6675-.0274.3053-.8655.9707-.8991.676-.0632.3706.699.7728.9643a3.4849,3.4849,0,0,1,.2927,2.9521c-.4317.1643-.2338.6044-.299.9287a4.8084,4.8084,0,0,1-3.148,2.0256,7.4184,7.4184,0,0,1-5.9-3.2848c-.68-.8781-1.474-2.11-.9539-3.3838.1221.0484.1833-.0484.27-.1095-.537-.55.52-.88.177-1.3371a6.2944,6.2944,0,0,1,3.7564-3.8808c1.175.4549,2.0761-.678,3.3437-.4232,1.52.3874,3.06.7391,4.5189,1.23" transform="translate(-5.6389 -2.5843)"/><path class="cls-2" d="M36.0178,64.3939c1.4507,1.3224,3.7375,1.44,5.6093.9434,1.6214-.4633,2.4553-1.9435,3.8913-2.809.4717,0,.7266.5159,1.2.5348-1.4235,1.6551-2.4384,3.4807-4.5524,4.1355-1.472.2591-3.1964.6928-4.6809.1433-1.2529-.07-1.87-.815-2.9438-1.3329v-.2653a13.3419,13.3419,0,0,1-2.1393-2.5479c-.539-.398-.5222-.8-1.0571-1.0718-.2125-.8928-1.2043-1.5687-1.8824-2.1393-.7939-.8212-2.23-.6464-3.489-.6738-2.2931-.0737-3.1417,2.8005-5.07,3.348-.2421.4948-.9707.459-.937,1.0759,2.1393.9139,2.9163-1.6234,4.5483-2.0193a4.3875,4.3875,0,0,1,4.54,2.4131c.44.7454,1.6,1.4024,1.3454,2.5541a1.4383,1.4383,0,0,1-1.0781.2507,24.3386,24.3386,0,0,1-3.4743-3.07c-.8549-.0758-1.4234.579-2.2656.5306-1.0129.5349-1.415,1.67-2.6785,1.6151a18.7179,18.7179,0,0,1-3.2195-.6717c-.2717-.4906-.88-.1727-1.3246-.2738a25.0914,25.0914,0,0,1-1.8761-4.0176c-.4021-.3369-.2463-.916-.7959-1.196-.6128-.3306-1.3834.3559-1.474-.6717-2.15-.1053-3.4532,1.5308-4.2807,3.2111-.0337,1.1118.12,2.3942,1.2,2.8047.5644.7329,1.7983.36,2.0046,1.35.6233-.2464,1.434-.0169,1.8783-.6822a2.6011,2.6011,0,0,0-.8024-2.3963c-1.0759-.6675-1.6655.6528-2.6678.5327a.4333.4333,0,0,1-.68.1306c-.6043-.1642.0864-.6275-.1263-1.0655.8759-1.5624,2.8383-1.4381,4.4092-1.2128,1.4971.4422,1.4255,2.3373,2.4046,3.2132.3664,1.6277-1.1559,2.3794-1.9982,3.348-1.5308,1.356-3.1291-.2884-4.8156-.1431a4.1633,4.1633,0,0,1-2.2784-1.4593,7.748,7.748,0,0,1-.4042-6.0116c.3389-.0358.4169-.4022.4042-.676,1.7266-1.71,4.1944-3.1626,6.9634-2.5436,2.7247.8507,2.8048,3.9734,4.4029,5.8874.15.1474.2886.3538.5349.27.2464-.08-.2906-.7327.2716-.539a5.9077,5.9077,0,0,1,1.7351-2.67c.0252-.5369.63-.8022.9391-1.2149.6254-.0232.8549-1.1582,1.7309-.9286.6043-1.2171,2.1667-.6107,3.0764-1.3308,5.083-.72,7.0454,4.3924,9.9029,7.3424" transform="translate(-5.6389 -2.5843)"/><path class="cls-3" d="M41.1915,6.7719c.2147,1.5583,1.238,2.9564.659,4.6767-.3832.24-.3516.7391-.5391.9413-.3411.7095-.3053,1.5918-1.057,2.133-.358.9644-1.5056,1.4908-2.0194,2.1541a8.3825,8.3825,0,0,1-7.3508,1.4592,3.0187,3.0187,0,0,1-2.2362-.857A17.7341,17.7341,0,0,0,27.2415,15.78c-.3833-.3411-.3244-1.1455-.5012-1.9183a5.7487,5.7487,0,0,1,0-2.4131,6.5039,6.5039,0,0,1-1.1981-2.6741c.4737-1.5267,1.9877-2.0931,3.15-3.1038,2.2-1.914,5.3673-4.1629,8.6206-2.5141a11.2525,11.2525,0,0,1,3.8787,3.6153" transform="translate(-5.6389 -2.5843)"/><path class="cls-4" d="M50.3051,5.4725c.7854.8465,1.55,1.8109,2.2909,2.79.7559.1579,1.0887-.6675,1.7392-.7938.5729-.5518,1.2467-1.4066,2.1353-1.47.8675.1579,1.1518.8233,1.8824,1.3329a2.4219,2.4219,0,0,0,.9222,1.4739c1.48-.32,2.9227-1.097,4.4662-1.23.916,1.2023-.0253,2.8195-.3137,4.0366a29.6987,29.6987,0,0,1-1.87,3.8744c.0273.7643-.596,1.2591-.9434,1.87a4.3918,4.3918,0,0,1-1.2087,2.4068c.12.7454-.7517.7622-.6611,1.4571-1.6952,1.56-1.8635,3.71-3.6112,5.2367a18.475,18.475,0,0,1-2.6743,2.94c-.76,1.24-2.1414,1.276-3.0679,2.6783-.6085.07-.937.8423-1.4887,1.0592-.9939,1.31.2149,2.691,0,4.1523.9707,1.474-.0653,3.1249-.1305,4.683-.297.7118-.76,1.0108-1.057,1.7393.0736,1.7561,2.394,2.9627,3.2848,3.1795a.6152.6152,0,0,1,.5854.3622c.0083.2864-1.1076.6738-1.634,1.535.1979.8023,1.5645,1.0592,1.7561,1.573-.4591.63-1.7478.737-1.973,1.2949.4653.6191,1.9856.67,2.512,1.1792.0864.6991-.8675.499-1.1918.9034a15.8314,15.8314,0,0,1-8.2963-.4044c-2.0762-.2779-4.0091.457-6.0243.6718-.8675-.1432-.916.4506-1.6993.0232-.1558.0063-.2863-.118-.5621-.0232-.3875.5074-1.51-1.076-1.472-1.8656.4275-.5959-.3536-1.7877.6655-2.0151.5875-.9055,1.1686-2.1415.5307-3.2006-1.6952-1.5119-1.1392-3.9566-2.131-5.7485.1558-1.5371-.2253-3.1837.6633-4.6851-.1032-.2611.1811-.478.2715-.5454.8845-2.3562,3.19-4.2976,2.668-7.0813-.337-.6759.0168-.8423-.1811-1.31-.1559-.7938-.539-1.1076-.0779-2.0341.6674-3.0532,4.1818-3.51,6.4159-5.2156,2.55-.5581,3.8007-3.4239,5.0872-5.3569a1.2641,1.2641,0,0,1,.2632-.92c1.3688-1.1328,1.1181-3.3837,2.27-4.83-.1221-.5054.19-.8318.4043-1.1982a9.8351,9.8351,0,0,1,.7771-2.9289c.2906-.0758.5221.0905.678.4042" transform="translate(-5.6389 -2.5843)"/><path class="cls-5" d="M14.0275,9.9285c2.0193,2.1583,3.0237,5.7337,5.4978,7.3509a5.5209,5.5209,0,0,0,3.8871,2.3983c.8233,1.0655,2.5015.6254,3.4679,1.6024,1.2-.3516,1.3161,1.0634,2.409.9412a8.3282,8.3282,0,0,1,1.48,2.1478c.4274,2.6911-1.7814,4.283-1.7435,6.814-1.36,2.7794.28,5.63.1241,8.5658a3.2571,3.2571,0,0,1-.3958,2c-.0316,2.4909-1.695,4.167-3.211,5.8747-.5518,1.7309.67,4.15-.9308,5.4916-.7265.0126-1.2655.539-2.0109.539a10.458,10.458,0,0,1-4.2766.1285c-.4569-.6254-1.4971.15-1.8677-.6675-.6527-.4485-1.7519-.2464-2.4215-.2717-1.6782-.1684-3.1711.0527-5.0178-.1621a3.3578,3.3578,0,0,1-1.2.0358c-.577-.3348.16-1.03.5706-1.2908a2.7381,2.7381,0,0,0,.9222-.6148c.177-.7433-1.457-.5959-1.2507-1.3561.5138-.3685,1.8256-.75,1.653-1.5371-.2991-.95-1.695-1.1223-1.8467-1.893A8.3869,8.3869,0,0,1,12.84,44.5476c.2042-.5432.9664-.2611.937-.7875.1853-.5516.8422-1.0907.3979-1.7435-.2126-.3116.0906-.6253-.2716-.9475a4.2943,4.2943,0,0,0,.1327-1.6c.5138-.5854-.21-1.196.4106-1.7288-.1306-1.236.7328-2.3436.798-3.2132-.0947-.5643.2632-.3559.5517-1.12.2885-.7875.6612-.8886.7854-1.3623.1222-.4865-.0863-2.8237-1.4676-3.54-1.474-.5686-2.0867-2.1057-3.2049-2.9417-1.1264-1.6-1.6-3.9312-3.211-5.2031-.1559-1.3918-.7855-1.5182-1.0086-3.0153a9.1324,9.1324,0,0,1-.9328-2.3478c.8675-.7769,2.5457.916,3.0636-.0231-.0252-.5707-.2632-2.072.32-2.2741.9875.04,2.1435.5706,2.8089.2295.7811-.6317-.099-3.0048,1.0781-3.0006" transform="translate(-5.6389 -2.5843)"/><path class="cls-6" d="M169.661,79.5354h-4.3061v.0509A12.3079,12.3079,0,0,0,157.03,83.509a13.1435,13.1435,0,0,0-3.6934,9.3722v1.86l-4.339,4.3415a16.3238,16.3238,0,1,0-16.0012,12.9585,15.99,15.99,0,0,0,5.1229-.8322c.0042.0043.0054.01.01.0147l.0545-.0344a16.9087,16.9087,0,0,0,2.9555-1.34,16.2523,16.2523,0,0,0,3.7814-3.0185l8.4162-8.4162v11.7369a1.9474,1.9474,0,0,0,1.8931,1.8887h1.7266a1.9452,1.9452,0,0,0,1.8972-1.8887V92.9529a7.8016,7.8016,0,0,1,2.15-5.618,6.7694,6.7694,0,0,1,5.1558-2.2785h3.5015a1.9253,1.9253,0,0,0,1.8761-1.874V81.4136A1.93,1.93,0,0,0,169.661,79.5354Zm-42.04,25.5261a10.9678,10.9678,0,0,1-4.005-3.9988,10.6024,10.6024,0,0,1,0-10.7641A10.937,10.937,0,0,1,127.621,86.3a10.5947,10.5947,0,0,1,10.76,0,10.9748,10.9748,0,0,1,4.0008,3.9986,10.5764,10.5764,0,0,1,0,10.7641,11.0058,11.0058,0,0,1-4.0008,3.9988,10.5551,10.5551,0,0,1-10.76,0Z" transform="translate(-5.6389 -2.5843)"/><path class="cls-6" d="M106.2234,69.6085a16.8536,16.8536,0,0,0-19.4563,2.5542c-3.4259,3.03-5.161,7.2982-5.161,12.674v25.2215A1.9919,1.9919,0,0,0,83.6,112.0417h1.7645a1.9776,1.9776,0,0,0,1.9773-1.9835V85.6515c0-4.3355,1.1033-7.3825,3.3605-9.3112A11.3545,11.3545,0,0,1,98.31,73.3586a10.7884,10.7884,0,0,1,7.7825,3.22,11.0078,11.0078,0,0,1-.0294,15.8156A11.4106,11.4106,0,0,1,98.31,95.4322a10.4862,10.4862,0,0,1-5.7526-1.6234A1.9874,1.9874,0,0,0,89.515,95.466L89.49,97.5148a1.9815,1.9815,0,0,0,1.0528,1.7793,16.5352,16.5352,0,0,0,7.85,1.8782,17.1449,17.1449,0,0,0,7.8141-1.9815,16.6624,16.6624,0,0,0,6.4412-5.8515,16.3228,16.3228,0,0,0,2.512-8.9448,15.9374,15.9374,0,0,0-2.512-8.867A16.4726,16.4726,0,0,0,106.2234,69.6085Z" transform="translate(-5.6389 -2.5843)"/><path class="cls-6" d="M335.88,104.941a1.9263,1.9263,0,0,0-1.9288.0569,10.02,10.02,0,0,1-5.4832,1.5582,10.8861,10.8861,0,0,1-7.3888-2.8974,9.4057,9.4057,0,0,1-1.3412-1.4677,11.2744,11.2744,0,0,1-.596-.9665,13.2615,13.2615,0,0,1-1.2929-5.1272c0-.0358-.0063-.0653-.0063-.1011v-.0147c-.021-.3179-.0294-.6464-.0294-.975V73.9458a1.9478,1.9478,0,0,0-1.8929-1.8825H314.253a1.95,1.95,0,0,0-1.8972,1.8909V95.7435c0,.0463.0042.099.0042.1538,0,.0357-.0042.0652-.0042.0989,0,.1516.0127.3012.0127.4443.0042.1032.0042.2085.0083.3011.0128.2674.0254.5285.0485.79.0085.0632.0168.1221.0253.1811.0211.2359.042.4612.0694.6864a16.7925,16.7925,0,0,0,.8224,3.46l-5.17,5.1687V96.0543c0-5.2579-1.7056-9.4354-5.0493-12.4023a16.4917,16.4917,0,0,0-19.0247-2.5078,16.0834,16.0834,0,0,0-6.2959,5.7884,15.6163,15.6163,0,0,0-2.4763,8.6921,15.9579,15.9579,0,0,0,2.4763,8.7659,16.2774,16.2774,0,0,0,6.2959,5.7127,16.7415,16.7415,0,0,0,7.6456,1.9372,16.2142,16.2142,0,0,0,7.62-1.8088,1.94,1.94,0,0,0,1.0444-1.7182v-2.032a1.9413,1.9413,0,0,0-2.9816-1.6445,10.2338,10.2338,0,0,1-5.6095,1.5919,11.1555,11.1555,0,0,1-7.5636-2.9647,10.773,10.773,0,0,1-.0169-15.5146,10.5057,10.5057,0,0,1,7.5805-3.1332,11.19,11.19,0,0,1,7.4562,2.9164c2.2087,1.8929,3.2783,4.8724,3.2783,9.1153v13.131a1.94,1.94,0,0,0,1.9436,1.9414h1.7287a1.9469,1.9469,0,0,0,1.6558-.9334l.0176-.0069.6084-.6149,5.9961-5.9931a14.0735,14.0735,0,0,0,2.8205,3.4452,16.3321,16.3321,0,0,0,10.8546,4.2239s.0317-.0021.0485-.0021c.0548,0,.1158.0021.1726.0021a15.8315,15.8315,0,0,0,7.4436-1.7709,1.8916,1.8916,0,0,0,1.017-1.6781v-1.9835A1.9117,1.9117,0,0,0,335.88,104.941Z" transform="translate(-5.6389 -2.5843)"/><path class="cls-6" d="M273.15,81.4073a.9334.9334,0,0,0,0-1.2739l-.5665-.56a.9182.9182,0,0,0-1.2718,0l-2.4825,2.48-.6085.6127-1.1529,1.1507a18.0473,18.0473,0,0,0-11.63-4.4988,16.4457,16.4457,0,0,0-16.3967,16.3925c0,.2882.0218.5647.0345.8462l-3.8586,3.86a14.3537,14.3537,0,0,0,.1632-2.0741V81.4385a1.9438,1.9438,0,0,0-1.8909-1.8951h-1.7308a1.9456,1.9456,0,0,0-1.8931,1.8951V98.3427a7.9657,7.9657,0,0,1-2.352,5.82,8.6684,8.6684,0,0,1-6.1842,2.3709,8.7887,8.7887,0,0,1-6.1823-2.3646,8.0825,8.0825,0,0,1-2.2825-5.8264V81.4385a1.9452,1.9452,0,0,0-1.8909-1.8951H209.24a1.9423,1.9423,0,0,0-1.8908,1.8951V98.3427c0,.2286.0207.45.031.6751l-5.3773,5.55c-1.48,1.5539-3.8408,1.994-6.0876,2.0046a10.0417,10.0417,0,0,1-4.845-1.3645,10.4118,10.4118,0,0,1-3.6934-3.9818,13.6279,13.6279,0,0,1-1.3307-6.22V85.0566h15.5692a1.9244,1.9244,0,0,0,1.8719-1.874V81.4117a1.9293,1.9293,0,0,0-1.8719-1.8761H186.0461V73.5808a1.9488,1.9488,0,0,0-1.8972-1.8845h-1.67a1.9477,1.9477,0,0,0-1.895,1.8971v5.9422h-3.4913a1.932,1.932,0,0,0-1.88,1.8824v1.7646a1.9244,1.9244,0,0,0,1.8719,1.874h3.5V95.7429c0,4.9735,1.6086,9.0964,4.9713,12.0738a16.3654,16.3654,0,0,0,10.3115,4.2113v.0127c.0568,0,.1178-.0021.1768-.0021.1221,0,.2422.0021.3643.0021a1.8073,1.8073,0,0,0,.3748-.038,13.9425,13.9425,0,0,0,9.0564-3.948l.9666-.9876,1.6276-1.6277.5678-.5659a14.62,14.62,0,0,0,2.258,3.06,14.4832,14.4832,0,0,0,20.12.0884c.2968-.3029.5717-.6151.8359-.9318l7.3146-7.3122c1.5268,6.1034,6.6989,10.226,15.4761,12.2787a19.8631,19.8631,0,0,1,9.3281,4.5335,10.2588,10.2588,0,0,1,3.3711,7.932A12.4729,12.4729,0,0,1,255.29,136.9438a12.2809,12.2809,0,0,1-6.178-1.6718,12.5058,12.5058,0,0,1-6.2475-10.7494,12.6991,12.6991,0,0,1,1.4655-5.9716,11.9229,11.9229,0,0,1,2.5248-3.14,1.9784,1.9784,0,0,0-.4191-3.2469l-1.535-.7854a1.9255,1.9255,0,0,0-2.1878.2526c-3.8407,3.5439-5.54,7.2835-5.54,12.8909a18.114,18.114,0,0,0,36.2279,0,15.8762,15.8762,0,0,0-5.062-11.9728,21.98,21.98,0,0,0-5.4663-3.786c.5033.2422.9833.4991,1.4572.777a16.2733,16.2733,0,0,0,5.5273-22.01,16.6814,16.6814,0,0,0-1.1252-1.7035l1.94-1.9433Zm-8.0771,19.6477a11.2756,11.2756,0,0,1-1.0192,1.4613c-.0337.0422-.0653.08-.099.1222-.0821.0926-.1557.1831-.2378.27-.1032.1221-.2148.2359-.3243.3558a.2793.2793,0,0,0-.0674.0632,10.9964,10.9964,0,0,1-3.9839,2.5563c-.1158.0358-.2275.0716-.337.1074a1.7118,1.7118,0,0,1-.1768.0589c-.1452.0443-.2884.0864-.4338.1222a.88.88,0,0,0-.0905.0273c-.1516.038-.299.0716-.4464.1033-.0422.0041-.0758.0168-.12.021-.1389.0252-.2715.0506-.4106.0779-.1369.0211-.2758.0316-.4127.0463-.04.0084-.0863.0148-.1263.0211-.2105.021-.419.0421-.63.0484.13.0295.2591.0548.3875.0843-.1326-.0295-.2674-.0548-.4127-.0843-.1643.0063-.3242.0148-.5012.0148a10.8431,10.8431,0,0,1-10.0672-6.8245,9.3371,9.3371,0,0,1-.8316-3.9965,10.1429,10.1429,0,0,1,1.0212-4.4935,10.8427,10.8427,0,0,1,18.8266-1.655.4088.4088,0,0,0,.0611.0589c.1453.219.2927.438.4317.6738a10.5817,10.5817,0,0,1,0,10.76Zm3.6617-15.2028-.0076-.02.0039-.0039A.06.06,0,0,0,268.7344,85.8522Z" transform="translate(-5.6389 -2.5843)"/><path class="cls-1" d="M199.531,14.1233a1.59,1.59,0,0,1,1.562-1.5615h.3a1.9515,1.9515,0,0,1,1.562.9l16.4009,24.15,16.3994-24.15a1.87,1.87,0,0,1,1.5625-.9h.3a1.5909,1.5909,0,0,1,1.5625,1.5615V53.4719a1.562,1.562,0,0,1-3.124,0V18.2688l-15.44,22.4668a1.5079,1.5079,0,0,1-2.6425,0l-15.44-22.4668V53.5315a1.502,1.502,0,0,1-3.0039,0Z" transform="translate(-5.6389 -2.5843)"/><path class="cls-1" d="M245.488,45.9026v-.12c0-6.3682,5.4668-9.9727,13.3965-9.9727a36.8844,36.8844,0,0,1,10.1524,1.3213V35.81c0-6.1875-3.7842-9.3711-10.0918-9.3711a19.8125,19.8125,0,0,0-8.711,2.042,1.5674,1.5674,0,0,1-.6611.1807,1.44,1.44,0,0,1-1.3818-1.3819,1.4954,1.4954,0,0,1,.8408-1.3212,23.7417,23.7417,0,0,1,10.0928-2.2833c4.1455,0,7.4492,1.1417,9.6718,3.3643,2.043,2.042,3.124,4.8662,3.124,8.65V53.5315a1.4431,1.4431,0,1,1-2.8837,0V49.6868a13.9343,13.9343,0,0,1-11.7139,5.8271C251.616,55.5139,245.488,52.27,245.488,45.9026Zm23.6094-2.583V39.8352a40.6054,40.6054,0,0,0-10.3935-1.3818c-6.4874,0-10.0918,2.8838-10.0918,7.1484v.12c0,4.4453,4.205,7.0283,8.8906,7.0283C263.7507,52.75,269.0974,48.9055,269.0974,43.32Z" transform="translate(-5.6389 -2.5843)"/><path class="cls-1" d="M307.9646,53.5315a1.4039,1.4039,0,0,1-1.4414,1.5019,1.4516,1.4516,0,0,1-1.502-1.5019V47.9446c-2.6435,4.0254-6.5478,7.5693-12.6152,7.5693-7.39,0-14.8984-5.9472-14.8984-15.9189v-.12c0-9.9727,7.5088-16.04,14.8984-16.04,6.127,0,10.0918,3.4844,12.6152,7.3291V12.2A1.4036,1.4036,0,0,1,306.4626,10.7a1.4513,1.4513,0,0,1,1.502,1.5009ZM280.6912,39.3538v.1211c0,8.05,5.5869,13.2158,12.0146,13.2158a12.8312,12.8312,0,0,0,12.4951-13.1563v-.12a12.792,12.792,0,0,0-12.4951-13.1562C286.0378,26.2581,280.6912,31.1243,280.6912,39.3538Z" transform="translate(-5.6389 -2.5843)"/><path class="cls-1" d="M329.0505,55.5139c-8.0507,0-15.0185-6.4277-15.0185-15.98v-.12c0-8.8906,6.247-15.9795,14.5371-15.9795,8.5908,0,14.0576,7.0889,14.0576,15.8594a1.4952,1.4952,0,0,1-1.4414,1.3818h-24.03c.541,7.6289,6.0078,12.0742,12.0156,12.0742a13.5578,13.5578,0,0,0,9.9122-4.205,1.305,1.305,0,0,1,.9609-.42,1.41,1.41,0,0,1,1.4414,1.3819,1.4438,1.4438,0,0,1-.4805,1.02A15.5777,15.5777,0,0,1,329.0505,55.5139Zm10.3926-17.4814c-.4209-6.1875-3.9648-11.8946-10.9941-11.8946-6.0674,0-10.753,5.1065-11.294,11.8946Z" transform="translate(-5.6389 -2.5843)"/><path class="cls-1" d="M348.2742,13.6428a1.77,1.77,0,0,1,1.8017-1.8027,1.8211,1.8211,0,0,1,1.8623,1.8027v1.0215a1.821,1.821,0,0,1-1.8623,1.8018,1.77,1.77,0,0,1-1.8017-1.8018Zm.36,11.7744a1.472,1.472,0,1,1,2.9434,0V53.5315a1.4039,1.4039,0,0,1-1.4414,1.5019,1.451,1.451,0,0,1-1.502-1.5019Z" transform="translate(-5.6389 -2.5843)"/><path class="cls-1" d="M360.1687,25.4172a1.472,1.472,0,1,1,2.9434,0v7.4493c2.6435-5.9473,7.99-9.1915,12.3154-9.1915a1.5654,1.5654,0,0,1,1.5615,1.6221,1.6,1.6,0,0,1-1.5615,1.6221c-6.4883.6006-12.3154,5.4668-12.3154,15.3183v11.294a1.472,1.472,0,1,1-2.9434,0Z" transform="translate(-5.6389 -2.5843)"/><path class="cls-1" d="M378.6706,45.9026v-.12c0-6.3682,5.4668-9.9727,13.3965-9.9727A36.8838,36.8838,0,0,1,402.22,37.1311V35.81c0-6.1875-3.7842-9.3711-10.0918-9.3711a19.8125,19.8125,0,0,0-8.711,2.042,1.5674,1.5674,0,0,1-.6611.1807,1.44,1.44,0,0,1-1.3818-1.3819,1.4954,1.4954,0,0,1,.8408-1.3212,23.7417,23.7417,0,0,1,10.0928-2.2833c4.1455,0,7.4492,1.1417,9.6718,3.3643,2.043,2.042,3.1241,4.8662,3.1241,8.65V53.5315a1.4431,1.4431,0,1,1-2.8838,0V49.6868a13.9341,13.9341,0,0,1-11.7139,5.8271C384.7986,55.5139,378.6706,52.27,378.6706,45.9026ZM402.28,43.32V39.8352a40.6054,40.6054,0,0,0-10.3935-1.3818c-6.4873,0-10.0918,2.8838-10.0918,7.1484v.12c0,4.4453,4.2051,7.0283,8.8906,7.0283C396.9333,52.75,402.28,48.9055,402.28,43.32Z" transform="translate(-5.6389 -2.5843)"/></svg>
